<?xml version="1.0" encoding="UTF-8"?>
<svg id="_图层_1" data-name="图层 1" xmlns="http://www.w3.org/2000/svg" viewBox="0 0 68.74 87.88">
  <defs>
    <style>
      .cls-1 {
        stroke: #39b54a;
      }

      .cls-1, .cls-2, .cls-3, .cls-4 {
        fill: none;
        stroke-miterlimit: 10;
        stroke-width: 8px;
      }

      .cls-2 {
        stroke: #2e3192;
      }

      .cls-5 {
        fill: #8cc63f;
      }

      .cls-5, .cls-6 {
        stroke-width: 0px;
      }

      .cls-3 {
        stroke: #8cc63f;
      }

      .cls-6 {
        fill: #2e3192;
      }

      .cls-4 {
        stroke: #006837;
      }
    </style>
  </defs>
  <g>
    <path class="cls-2" d="M42.77,83.4V16.66s0-3.75,18.45-9.74"/>
    <polygon class="cls-6" points="54.58 17.6 59.89 7.39 49.67 2.08 56.26 0 66.47 5.3 61.17 15.52 54.58 17.6"/>
  </g>
  <g>
    <path class="cls-3" d="M35.29,22.01c-7.4-.72-18.44-1.31-29.81-1.98"/>
    <polygon class="cls-5" points="15.5 12.47 6.89 20.11 14.54 28.71 7.64 28.31 0 19.7 8.6 12.06 15.5 12.47"/>
  </g>
  <path class="cls-3" d="M35.55,48.21c-8.09-1.38-14.63-2.27-15.07-3.92-1.43-5.32,44.17-9.65,44.26-15.17.05-2.98-6.09-4.54-14.23-5.61"/>
  <path class="cls-1" d="M35.55,48.21c-8.09-1.38-14.63-2.27-15.07-3.92-1.43-5.32,44.17-9.65,44.26-15.17.05-2.98-6.09-4.54-14.23-5.61"/>
  <path class="cls-1" d="M35.48,70.65c-3.32-.66-4.22-3.08-4.32-4.2-.45-5.19,28.01-8.22,27.23-12.4-.25-1.33-3.44-2.57-7.86-3.37"/>
  <path class="cls-4" d="M37.57,83.96c7.75-1.55,17.11-3.9,17.01-6.82-.03-.9-2.07-2.45-4.06-2.92"/>
</svg>